# xmcd CD database file
#
# Track frame offsets:
#	150
#	17565
#	32818
#	44852
#	59570
#	71911
#	85523
#	103403
#	122536
#	145948
#	158360
#	174589
#	192088
#	207478
#	231215
#	247202
#
# Disc length: 3480 seconds
#
# Revision: 0
# Processed by: cddbd v1.5.2PL0 Copyright (c) Steve Scherf et al.
# Submitted via: CDex 1.51
#
DISCID=e90d9610
DTITLE=Pulaski and Lake - Dressed In Oil
DYEAR=2013
DGENRE=Blues
TTITLE0=Message From NOLA 2006
TTITLE1=Howl You Talk
TTITLE2=Fear Her Love
TTITLE3=Did I Tell You
TTITLE4=Blues Acadiana
TTITLE5=White Girl So Blue
TTITLE6=It Started To Rain
TTITLE7=Never Mind
TTITLE8=Like The Wind
TTITLE9=On The Parship Trail
TTITLE10=Leave A Message On Facebook
TTITLE11=Hold On
TTITLE12=You Are
TTITLE13=When The Shadows Fall
TTITLE14=Ride the Spirit Train
TTITLE15=Somplicity
EXTD=YEAR: 2013
EXTT0=
EXTT1=
EXTT2=
EXTT3=
EXTT4=
EXTT5=
EXTT6=
EXTT7=
EXTT8=
EXTT9=
EXTT10=
EXTT11=
EXTT12=
EXTT13=
EXTT14=
EXTT15=
PLAYORDER=
